<svg class="app-svg app-svg--flag-br" xmlns="http://www.w3.org/2000/svg" xmlns:xlink="http://www.w3.org/1999/xlink" width="100%" height="100%" viewBox="0 0 24 16"><defs><style>.a{fill:#fff;}.b{clip-path:url(#a);}.c{fill:#6fa44a;}.d{fill:#fed953;}.e{fill:#0b55b1;}</style><clipPath id="a"><rect class="a" width="24" height="16"/></clipPath></defs><g class="b"><g transform="translate(-13 -28.751)"><path class="c" d="M12,27.751H38.138V45.972H12Z"/><path class="d" d="M27.855,36.667,17.218,42.88l10.637,6.213L38.492,42.88Z" transform="translate(-2.907 -5.835)"/><ellipse class="e" cx="3.49" cy="3.489" rx="3.49" ry="3.489" transform="translate(21.459 33.556)"/><path class="a" d="M52.477,55.555a7,7,0,0,0-3.048-.169,3.464,3.464,0,0,0-.492,1.224,7.022,7.022,0,0,1,3.033.176,6.335,6.335,0,0,1,3.448,2.171,3.464,3.464,0,0,0,.418-1.351A6.451,6.451,0,0,0,52.477,55.555Z" transform="translate(-27.413 -20.225)"/></g></g></svg>
