<svg class="app-svg app-svg--flag-uk" xmlns="http://www.w3.org/2000/svg" xmlns:xlink="http://www.w3.org/1999/xlink" width="100%" height="100%" viewBox="0 0 24 16"><defs><style>.a{fill:#fff;}.b{clip-path:url(#a);}.c{fill:#cf142b;}.d{fill:#00247d;}</style><clipPath id="a"><rect class="a" width="24" height="16"/></clipPath></defs><g class="b"><g transform="translate(-4)"><rect class="a" width="31.982" height="15.998" transform="translate(0 0)"/><path class="c" d="M14.392,9.594V16h3.2v-6.4H31.982V6.4H17.591V0h-3.2V6.4H0v3.2Z" transform="translate(0)"/><path class="d" d="M174.915,5.178V0H185.27Z" transform="translate(-156.258)"/><path class="d" d="M174.915,101.433v5.178H185.27Z" transform="translate(-156.258 -90.614)"/><path class="d" d="M38.2,101.433v5.178H27.848Z" transform="translate(-24.878 -90.614)"/><path class="d" d="M38.2,5.178V0H27.848Z" transform="translate(-24.878)"/><path class="d" d="M0,13.942v3.845H7.69Z" transform="translate(0 -12.455)"/><path class="d" d="M235.445,13.942v3.845h-7.689Z" transform="translate(-203.462 -12.455)"/><path class="d" d="M235.445,103.835V99.99h-7.689Z" transform="translate(-203.462 -89.325)"/><path class="d" d="M0,103.835V99.99H7.689Z" transform="translate(0 -89.325)"/><path class="c" d="M195.82,0h-1.776L183.4,5.332h1.776L195.837,0" transform="translate(-163.838)"/><path class="c" d="M12.42,99.987H10.644L0,105.32H1.776l10.661-5.332" transform="translate(0 -89.322)"/><path class="c" d="M8.882,5.337h1.776L0,0V.894Z" transform="translate(0 0)"/><path class="c" d="M201.645,99.968h-1.776l10.658,5.337v-.894Z" transform="translate(-178.55 -89.305)"/></g></g></svg>
